<svg xmlns="http://www.w3.org/2000/svg" xmlns:xlink="http://www.w3.org/1999/xlink" viewBox="0 0 989.82 295"><defs><style>.a{fill:#fff;}.b{fill:#4ca4ff;}.c{fill:url(#a);}</style><linearGradient id="a" x1="429.87" y1="539.76" x2="685.13" y2="539.76" gradientUnits="userSpaceOnUse"><stop offset="0" stop-color="#84f4ac"/><stop offset="0.99" stop-color="#4ca4ff"/></linearGradient></defs><circle class="a" cx="147.5" cy="147.5" r="147.5"/><path class="b" d="M777.7,576.88a52.05,52.05,0,0,1-20.4-19.35,56.45,56.45,0,0,1,0-55.95,52.05,52.05,0,0,1,20.4-19.35,65.07,65.07,0,0,1,53.85-2.18,49.44,49.44,0,0,1,18.53,13.8l-15.6,14.4Q823.83,496,808.08,496a35.06,35.06,0,0,0-17.4,4.28,30.39,30.39,0,0,0-11.93,11.92,37.59,37.59,0,0,0,0,34.8,30.42,30.42,0,0,0,11.93,11.93,35.05,35.05,0,0,0,17.4,4.27q15.75,0,26.4-12.45l15.6,14.4a48.63,48.63,0,0,1-18.6,13.95,61.73,61.73,0,0,1-24.75,4.8A60.33,60.33,0,0,1,777.7,576.88Z" transform="translate(-410 -395)"/><path class="b" d="M898.45,503.15a42,42,0,0,1,16.43-3v21.6q-3.92-.3-5.25-.3-10.07,0-15.75,5.63T888.18,544v38.1H864.77v-80.7h22.36V512A26,26,0,0,1,898.45,503.15Z" transform="translate(-410 -395)"/><path class="b" d="M1006.68,548.3h-61a19,19,0,0,0,7.8,11.85q6.15,4.35,15.3,4.35a31,31,0,0,0,11.17-1.87A27.1,27.1,0,0,0,989,556.7l12.45,13.5q-11.4,13-33.3,13A52.68,52.68,0,0,1,944,577.93a39,39,0,0,1-16.2-14.78,40.71,40.71,0,0,1-5.7-21.45,41.22,41.22,0,0,1,5.62-21.37,39.41,39.41,0,0,1,15.45-14.85,47.82,47.82,0,0,1,43.43-.23,37.22,37.22,0,0,1,15.07,14.63,43.59,43.59,0,0,1,5.48,22.12Q1007.13,542.45,1006.68,548.3Zm-54.75-25.95a19.16,19.16,0,0,0-6.6,12.3h39.75a19.34,19.34,0,0,0-6.6-12.22,19.73,19.73,0,0,0-13.2-4.58A20.15,20.15,0,0,0,951.93,522.35Z" transform="translate(-410 -395)"/><path class="b" d="M1081.83,509.08q10.05,8.93,10.05,26.92v46H1070V572q-6.6,11.25-24.6,11.25a38.17,38.17,0,0,1-16.13-3.15,24,24,0,0,1-10.42-8.7,22.64,22.64,0,0,1-3.6-12.6q0-11.25,8.47-17.7t26.18-6.45h18.6c0-5.1-1.56-9-4.65-11.77s-7.75-4.13-13.95-4.13a40.77,40.77,0,0,0-12.68,2,33.5,33.5,0,0,0-10.57,5.47l-8.4-16.35a50.65,50.65,0,0,1,15.82-7.2,70.93,70.93,0,0,1,19-2.55Q1071.78,500.15,1081.83,509.08Zm-19.95,55.65a15.2,15.2,0,0,0,6.6-8.18V548.3h-16q-14.4,0-14.4,9.45a8.42,8.42,0,0,0,3.52,7.13q3.53,2.63,9.68,2.62A20.38,20.38,0,0,0,1061.88,564.73Z" transform="translate(-410 -395)"/><path class="b" d="M1197.17,501.35v67.2q0,22.2-11.55,33t-33.74,10.8a84.49,84.49,0,0,1-22.21-2.85,48.4,48.4,0,0,1-17.39-8.25l9.3-16.8a38.13,38.13,0,0,0,12.89,6.68,51.34,51.34,0,0,0,15.61,2.47q12.14,0,17.92-5.47t5.78-16.58V568.1q-9.16,10-25.5,10a42.81,42.81,0,0,1-20.33-4.87,37.09,37.09,0,0,1-14.62-13.73,41.17,41.17,0,0,1,0-40.8A37.06,37.06,0,0,1,1128,505a42.82,42.82,0,0,1,20.33-4.88q17.54,0,26.69,11.55V501.35Zm-29,52.13q5.92-5.47,5.93-14.33t-5.93-14.32q-5.93-5.48-15.23-5.48t-15.3,5.48q-6,5.48-6,14.32t6,14.33q6,5.47,15.3,5.47T1168.15,553.48Z" transform="translate(-410 -395)"/><path class="b" d="M1234.45,577.93a39.61,39.61,0,0,1-15.83-14.78,43.21,43.21,0,0,1,0-42.9,39.59,39.59,0,0,1,15.83-14.77,51.58,51.58,0,0,1,45.67,0,39.7,39.7,0,0,1,15.75,14.77,43.21,43.21,0,0,1,0,42.9,39.72,39.72,0,0,1-15.75,14.78,51.67,51.67,0,0,1-45.67,0ZM1272.1,558q5.78-6.08,5.77-16.28t-5.77-16.27a19.5,19.5,0,0,0-14.78-6.08,19.74,19.74,0,0,0-14.85,6.08q-5.85,6.08-5.85,16.27t5.85,16.28a19.73,19.73,0,0,0,14.85,6.07A19.5,19.5,0,0,0,1272.1,558Z" transform="translate(-410 -395)"/><path class="b" d="M1332.7,577.93a39.61,39.61,0,0,1-15.83-14.78,43.21,43.21,0,0,1,0-42.9,39.59,39.59,0,0,1,15.83-14.77,51.58,51.58,0,0,1,45.67,0,39.7,39.7,0,0,1,15.75,14.77,43.21,43.21,0,0,1,0,42.9,39.72,39.72,0,0,1-15.75,14.78,51.67,51.67,0,0,1-45.67,0ZM1370.35,558q5.78-6.08,5.77-16.28t-5.77-16.27a19.5,19.5,0,0,0-14.78-6.08,19.74,19.74,0,0,0-14.85,6.08q-5.85,6.08-5.85,16.27t5.85,16.28a19.73,19.73,0,0,0,14.85,6.07A19.5,19.5,0,0,0,1370.35,558Z" transform="translate(-410 -395)"/><path class="c" d="M574,542.61l66.94-97a127.76,127.76,0,0,0-160.74-4.78c1-.07,2-.12,3-.12a43,43,0,1,1-42.43,50,127.84,127.84,0,0,0,76.25,172.92l14.7-14.7L490.4,607.55l23.26-23.26L555,625.63l44-44,23.25,23.26-44,44,16,16a127.82,127.82,0,0,0,90.91-114.52Z" transform="translate(-410 -395)"/></svg>