<svg id="Слой_1" data-name="Слой 1" xmlns="http://www.w3.org/2000/svg" viewBox="0 0 1262.92 272.8"><defs><style>.cls-1{fill:#fff;}</style></defs><circle class="cls-1" cx="136.4" cy="136.4" r="136.4"/><path d="M484.21,537.57,541.89,454a110.82,110.82,0,0,0-141.18-2A36.65,36.65,0,1,1,370.41,490a110.91,110.91,0,0,0,64,153.39l13.44-13.45-36.23-36.23,20.15-20.15L468,609.75l37.67-37.67,20.59,20.59-37.67,37.67,14.05,14a110.88,110.88,0,0,0,78.18-100.08Z" transform="translate(-333.71 -402.01)"/><path d="M761,538.8c-4.07,26.77-24.57,45.86-71.52,45.86-53.05,0-72.3-24.42-72.3-56.65,0-32.4,19.25-56.81,72.3-56.81,46.95,0,67.45,19.25,71.52,46H749.39c-4.07-20.66-21.13-35.06-59.94-35.06-45.22,0-60.87,19.57-60.87,45.86s15.65,45.69,60.87,45.69c38.81,0,55.87-14.24,59.94-34.9Z" transform="translate(-333.71 -402.01)"/><path d="M797,582.78h-10.8v-93.9H797v31.93c6.41-19.25,23.94-33.8,57.28-33.8v10.48c-40.85,0-57.28,21.6-57.28,46Z" transform="translate(-333.71 -402.01)"/><path d="M996,535.83a28.41,28.41,0,0,1-.16,3.76H878.18c1.09,21,16.74,36.3,53.36,36.3,27.86,0,43.51-8.76,49.92-22.22H993c-6.88,18.78-26.13,31-61.5,31-45.85,0-64.47-20.5-64.47-48.83s18.62-49,64.47-49S996,507.51,996,535.83Zm-117.84-3.91H984.91c-1.1-20.81-16.59-36.15-53.37-36.15C894.92,495.77,879.27,511.11,878.18,531.92Z" transform="translate(-333.71 -402.01)"/><path d="M1132.94,513.77V488.88h10.8v93.9h-10.8V557.9c-7.82,16.27-25.82,26.76-56.8,26.76-43.19,0-61.35-20.5-61.35-48.83S1033,487,1076.14,487C1107.12,487,1125.12,497.49,1132.94,513.77Zm0,22.06c0-22.22-15-38.65-53.67-38.65s-53.68,16.43-53.68,38.65,15,38.66,53.68,38.66S1132.94,558.05,1132.94,535.83Z" transform="translate(-333.71 -402.01)"/><path d="M1285.68,513.45V488.88h10.8v76.69c0,31.61-11.58,51.64-70.43,51.64a173.93,173.93,0,0,1-51.64-7.83v-9.86c14.71,4.54,30.83,8.14,49.61,8.14,52.11,0,61.66-15.8,61.66-42.09V556.8c-7.83,16.12-25.82,26.45-56.81,26.45-43.19,0-61.34-20.19-61.34-48,0-28,18.15-48.2,61.34-48.2C1259.86,487,1277.85,497.33,1285.68,513.45Zm0,22.07c0-22.07-15-38.34-53.68-38.34s-53.68,16.27-53.68,38.34,15,38.34,53.68,38.34S1285.68,557.58,1285.68,535.52Z" transform="translate(-333.71 -402.01)"/><path d="M1449.21,535.83c0,28.33-18.62,48.83-64.47,48.83s-64.48-20.5-64.48-48.83S1338.88,487,1384.74,487,1449.21,507.51,1449.21,535.83Zm-10.79,0c0-22.22-15-38.65-53.68-38.65s-53.68,16.43-53.68,38.65,15,38.66,53.68,38.66S1438.42,558.05,1438.42,535.83Z" transform="translate(-333.71 -402.01)"/><path d="M1596.62,535.83c0,28.33-18.62,48.83-64.47,48.83s-64.48-20.5-64.48-48.83S1486.3,487,1532.15,487,1596.62,507.51,1596.62,535.83Zm-10.79,0c0-22.22-15-38.65-53.68-38.65s-53.68,16.43-53.68,38.65,15,38.66,53.68,38.66S1585.83,558.05,1585.83,535.83Z" transform="translate(-333.71 -402.01)"/></svg>